HIERARCHY
ROOT Hips
{
	OFFSET -14.64140 90.27770 -84.91600
	CHANNELS 6 Xposition Yposition Zposition Zrotation Xrotation Yrotation
	JOINT Spine
	{
		OFFSET 0.00000 13.20850 -1.60436
		CHANNELS 3 Zrotation Xrotation Yrotation
		JOINT Spine1
		{
			OFFSET 0.00000 8.61716 0.00000
			CHANNELS 3 Zrotation Xrotation Yrotation
			JOINT Spine2
			{
				OFFSET 0.00000 8.61717 0.00000
				CHANNELS 3 Zrotation Xrotation Yrotation
				JOINT Spine3
				{
					OFFSET 0.00000 8.61717 0.00000
					CHANNELS 3 Zrotation Xrotation Yrotation
					JOINT Neck
					{
						OFFSET 0.00000 11.07920 1.10792
						CHANNELS 3 Zrotation Xrotation Yrotation
						JOINT Neck1
						{
							OFFSET 0.00000 7.08032 0.00000
							CHANNELS 3 Zrotation Xrotation Yrotation
							JOINT Head
							{
								OFFSET 0.00000 7.08031 0.00000
								CHANNELS 3 Zrotation Xrotation Yrotation
								End site
								{
									OFFSET 0.00000 0.00000 0.00000
								}
							}
						}
					}
					JOINT RightShoulder
					{
						OFFSET -0.01000 7.91373 5.19711
						CHANNELS 3 Zrotation Xrotation Yrotation
						JOINT RightArm
						{
							OFFSET -18.41580 0.00000 0.00000
							CHANNELS 3 Zrotation Xrotation Yrotation
							JOINT RightForeArm
							{
								OFFSET -29.11090 0.00000 0.00000
								CHANNELS 3 Zrotation Xrotation Yrotation
								JOINT RightHand
								{
									OFFSET -24.65040 0.00000 0.00000
									CHANNELS 3 Zrotation Xrotation Yrotation
									JOINT RightHandThumb1
									{
										OFFSET -5.35114 -0.85590 3.97906
										CHANNELS 3 Zrotation Xrotation Yrotation
										JOINT RightHandThumb2
										{
											OFFSET -4.52789 0.00000 0.00000
											CHANNELS 3 Zrotation Xrotation Yrotation
											JOINT RightHandThumb3
											{
												OFFSET -2.46976 0.00000 0.00000
												CHANNELS 3 Zrotation Xrotation Yrotation
												End site
												{
													OFFSET 0.00000 0.00000 0.00000
												}
											}
										}
									}
									JOINT RightHandIndex1
									{
										OFFSET -14.26970 0.00000 2.88139
										CHANNELS 3 Zrotation Xrotation Yrotation
										JOINT RightHandIndex2
										{
											OFFSET -5.48836 0.00000 0.00000
											CHANNELS 3 Zrotation Xrotation Yrotation
											JOINT RightHandIndex3
											{
												OFFSET -3.01859 0.00000 0.00000
												CHANNELS 3 Zrotation Xrotation Yrotation
												End site
												{
													OFFSET 0.00000 0.00000 0.00000
												}
											}
										}
									}
									JOINT RightHandMiddle1
									{
										OFFSET -14.26970 0.00000 -0.09147
										CHANNELS 3 Zrotation Xrotation Yrotation
										JOINT RightHandMiddle2
										{
											OFFSET -6.17441 0.00000 0.00000
											CHANNELS 3 Zrotation Xrotation Yrotation
											JOINT RightHandMiddle3
											{
												OFFSET -3.56743 0.00000 0.00000
												CHANNELS 3 Zrotation Xrotation Yrotation
												End site
												{
													OFFSET 0.00000 0.00000 0.00000
												}
											}
										}
									}
									JOINT RightHandRing1
									{
										OFFSET -12.69180 0.00000 -3.06433
										CHANNELS 3 Zrotation Xrotation Yrotation
										JOINT RightHandRing2
										{
											OFFSET -5.62556 0.00000 0.00000
											CHANNELS 3 Zrotation Xrotation Yrotation
											JOINT RightHandRing3
											{
												OFFSET -3.56744 0.00000 0.00000
												CHANNELS 3 Zrotation Xrotation Yrotation
												End site
												{
													OFFSET 0.00000 0.00000 0.00000
												}
											}
										}
									}
									JOINT RightHandPinky1
									{
										OFFSET -11.11390 0.00000 -6.03719
										CHANNELS 3 Zrotation Xrotation Yrotation
										JOINT RightHandPinky2
										{
											OFFSET -4.52789 0.00000 0.00000
											CHANNELS 3 Zrotation Xrotation Yrotation
											JOINT RightHandPinky3
											{
												OFFSET -2.46976 0.00000 0.00000
												CHANNELS 3 Zrotation Xrotation Yrotation
												End site
												{
													OFFSET 0.00000 0.00000 0.00000
												}
											}
										}
									}
								}
							}
						}
					}
					JOINT LeftShoulder
					{
						OFFSET 0.01000 7.91373 5.19711
						CHANNELS 3 Zrotation Xrotation Yrotation
						JOINT LeftArm
						{
							OFFSET 18.41580 0.00000 0.00000
							CHANNELS 3 Zrotation Xrotation Yrotation
							JOINT LeftForeArm
							{
								OFFSET 29.11090 0.00000 0.00000
								CHANNELS 3 Zrotation Xrotation Yrotation
								JOINT LeftHand
								{
									OFFSET 24.65040 0.00000 0.00000
									CHANNELS 3 Zrotation Xrotation Yrotation
									JOINT LeftHandThumb1
									{
										OFFSET 5.35114 -0.85590 3.97906
										CHANNELS 3 Zrotation Xrotation Yrotation
										JOINT LeftHandThumb2
										{
											OFFSET 4.52789 0.00000 0.00000
											CHANNELS 3 Zrotation Xrotation Yrotation
											JOINT LeftHandThumb3
											{
												OFFSET 2.46977 0.00000 0.00000
												CHANNELS 3 Zrotation Xrotation Yrotation
												End site
												{
													OFFSET 0.00000 0.00000 0.00000
												}
											}
										}
									}
									JOINT LeftHandIndex1
									{
										OFFSET 14.26970 0.00000 2.88139
										CHANNELS 3 Zrotation Xrotation Yrotation
										JOINT LeftHandIndex2
										{
											OFFSET 5.48836 0.00000 0.00000
											CHANNELS 3 Zrotation Xrotation Yrotation
											JOINT LeftHandIndex3
											{
												OFFSET 3.01859 0.00000 0.00000
												CHANNELS 3 Zrotation Xrotation Yrotation
												End site
												{
													OFFSET 0.00000 0.00000 0.00000
												}
											}
										}
									}
									JOINT LeftHandMiddle1
									{
										OFFSET 14.26970 0.00000 -0.09147
										CHANNELS 3 Zrotation Xrotation Yrotation
										JOINT LeftHandMiddle2
										{
											OFFSET 6.17440 0.00000 0.00000
											CHANNELS 3 Zrotation Xrotation Yrotation
											JOINT LeftHandMiddle3
											{
												OFFSET 3.56744 0.00000 0.00000
												CHANNELS 3 Zrotation Xrotation Yrotation
												End site
												{
													OFFSET 0.00000 0.00000 0.00000
												}
											}
										}
									}
									JOINT LeftHandRing1
									{
										OFFSET 12.69180 0.00000 -3.06433
										CHANNELS 3 Zrotation Xrotation Yrotation
										JOINT LeftHandRing2
										{
											OFFSET 5.62556 0.00000 0.00000
											CHANNELS 3 Zrotation Xrotation Yrotation
											JOINT LeftHandRing3
											{
												OFFSET 3.56744 0.00000 0.00000
												CHANNELS 3 Zrotation Xrotation Yrotation
												End site
												{
													OFFSET 0.00000 0.00000 0.00000
												}
											}
										}
									}
									JOINT LeftHandPinky1
									{
										OFFSET 11.11390 0.00000 -6.03719
										CHANNELS 3 Zrotation Xrotation Yrotation
										JOINT LeftHandPinky2
										{
											OFFSET 4.52789 0.00000 0.00000
											CHANNELS 3 Zrotation Xrotation Yrotation
											JOINT LeftHandPinky3
											{
												OFFSET 2.46976 0.00000 0.00000
												CHANNELS 3 Zrotation Xrotation Yrotation
												End site
												{
													OFFSET 0.00000 0.00000 0.00000
												}
											}
										}
									}
								}
							}
						}
					}
					JOINT pCube4
					{
						OFFSET 0.00000 10.91090 1.10792
						CHANNELS 3 Zrotation Xrotation Yrotation
						End site
						{
							OFFSET 0.00000 0.00000 0.00000
						}
					}
				}
			}
		}
	}
	JOINT RightUpLeg
	{
		OFFSET -9.98441 0.00000 0.00000
		CHANNELS 3 Zrotation Xrotation Yrotation
		JOINT RightLeg
		{
			OFFSET 0.00000 -42.11790 0.00000
			CHANNELS 3 Zrotation Xrotation Yrotation
			JOINT RightFoot
			{
				OFFSET 0.00000 -45.00020 -0.00001
				CHANNELS 3 Zrotation Xrotation Yrotation
				JOINT RightForeFoot
				{
					OFFSET 0.00000 -3.74820 0.00000
					CHANNELS 3 Zrotation Xrotation Yrotation
					JOINT RightToeBase
					{
						OFFSET 0.00000 0.06325 14.43120
						CHANNELS 3 Zrotation Xrotation Yrotation
						End site
						{
							OFFSET 0.00000 0.00000 0.00000
						}
					}
				}
			}
		}
	}
	JOINT LeftUpLeg
	{
		OFFSET 9.98441 0.00000 0.00000
		CHANNELS 3 Zrotation Xrotation Yrotation
		JOINT LeftLeg
		{
			OFFSET 0.00000 -42.11800 0.00000
			CHANNELS 3 Zrotation Xrotation Yrotation
			JOINT LeftFoot
			{
				OFFSET 0.00000 -45.00070 0.00000
				CHANNELS 3 Zrotation Xrotation Yrotation
				JOINT LeftForeFoot
				{
					OFFSET 0.00000 -3.74824 0.00000
					CHANNELS 3 Zrotation Xrotation Yrotation
					JOINT LeftToeBase
					{
						OFFSET 0.00000 0.06325 14.43110
						CHANNELS 3 Zrotation Xrotation Yrotation
						End site
						{
							OFFSET 0.00000 0.00000 0.00000
						}
					}
				}
			}
		}
	}
}
MOTION
Frames: 4
Frame Time: 0.050000
-0.04135054482486153 -0.04040560126556918 0.021375111729017397 -0.04752015029397256 0.01756154382484349 -0.0003760250629173788 -2.4582818503629764 -0.5131314566348057 -0.8433171084670537 -0.9549884189774109 3.6447450001331334 0.3784502017749047 -1.2083979932386093 -2.0868825064270693 -0.44898134240071275 -0.28923638811537894 0.22642700080062966 -0.7219715173708414 -0.2664273866890496 13.885402763658524 1.0928587802921397 0.22743299193102806 1.1989731466681042 0.9443940493792918 -0.030297452778826423 -12.910603501433174 0.12197366206136925 -4.747786034543702 1.8068828910491341 -15.168352595129956 70.512863280937 18.589629196686662 10.486921237449419 9.913761547239016 2.9222921266611657 104.72478264680937 15.495891090460566 -0.4931251450724922 -4.312560296379415 4.562690636484171 -0.1764819223072997 -1.6153124564642294 0.008201194147298486 0.006820897924591984 -56.197479247661505 -0.004019480118059313 0.04367325846268999 -56.258676009041146 -38.76741073897865 0.0387609319761959 0.01714749849938733 -0.02714163187398314 0.008066499656605754 0.017423888766396386 0.0175717626965045 -0.04832919497703425 0.040695859999696854 -36.647489374693734 -0.0291052015839821 0.025172273682379894 0.04589967866560931 -0.007034990411996671 0.023165393823023947 0.02923153212006137 0.01724588430708908 -0.02609544863961236 -19.718184816934773 0.009925945072118386 0.0010795140361700211 0.026532417775269494 -0.016385983598611095 -0.04834613168530876 -0.024142147196558033 -0.024468761613625246 0.022162570485518177 24.042558240430346 0.008192192210028322 0.027418347010273073 28.83571168517307 0.0357855285585201 0.03876179586275324 28.893770727958746 0.006078591135169806 -0.034388206956727965 6.976114860393561 1.5902695600123624 14.159824026851151 -69.82806191525012 27.19095590804907 -10.035408504106059 -1.9027578982139843 -2.8709587943504973 -103.12503213072422 -10.190224998127565 -7.78143138720984 3.975765274504094 -0.45229232070533054 0.08798779240591052 -8.105231091825564 -0.004104584219075062 -0.031716236798051155 44.607640223218596 0.04301093908303017 0.023249491401525345 44.56791431496225 12.44072883337129 0.04975586935233418 -0.011155535557182301 -0.022673270962516735 -0.04664914351116279 0.02686401231620305 -0.03504105037410926 -0.04080747904177236 0.047360852650429816 11.113781078850437 -0.021246223358122103 0.03095709777187526 -0.020424944427897326 -0.046480995099660465 -0.01837104930175268 -0.00013968545329952448 0.012142060062468256 0.031197275977103485 4.735505027803136 -0.041189174944604355 0.002189256053254341 0.02181892689970562 -0.015401251644826206 -0.0225090977418069 -0.026559498230191325 0.02466931208448495 0.03969619578900961 -5.5973990541037395 -0.045939672325272865 -0.029123688987966075 -6.745487039164797 -0.049166319047718135 -0.01719526455813612 -6.741698859378954 0.029117544586498515 0.0009889261475977532 0.00953597970048653 0.013008096657853938 -0.0010684442766096917 8.060836439178454 3.4921475620572715 -19.227091447408245 -0.04569188984513813 10.439365872899344 0.010518073807050615 -5.647782895793354 -15.701417499785618 3.18072436902728 0.030051742534695825 -0.039414028736559296 0.048559682381817855 -0.017470791688872174 4.7316434222404675 0.010652058276657902 12.464819062744542 -8.26101181078971 6.8652447277003334 0.008613640874664274 46.40507930870234 0.040644945716477046 -4.286966154813091 -14.796211626016479 -3.8196767303520716 -0.024440062513482057 -0.0016791937851580378 -0.009286329809854037 -0.017671425680381443 -10.744870205030258 0.007604639568303234 
0.023197972897311483 -0.046747813898479554 0.01340860013135045 0.024460662350768752 -0.031856083030983535 0.028619094023255166 -2.345958207441332 -0.39735727548973204 -0.8166803115344106 -0.9614324211053302 3.6234498629278677 0.433644709612032 -1.1868913569596125 -2.00504407411996 -0.490373849139965 -0.2307919502226407 0.26483326446996985 -0.7547002273713325 -0.2908132453673746 13.792616070750485 1.125415368448557 0.23597376358457747 1.1554108374241592 1.0591175751322925 -0.11675052579334289 -13.018820391668857 0.14875958897190572 -4.531913898223145 1.6823921482227333 -15.1289789867184 70.62045281042884 19.590808519660165 10.12049563388913 10.164124822375827 2.7570936216862933 104.63870204060102 15.602663593382204 -0.4584307502538274 -4.3870638133416 4.544119234454237 -0.16428367034497765 -1.5877584266555511 -0.018533754213192245 0.02181841809301774 -56.194834156796034 0.027814059136275267 -0.03416007054795863 -56.26806544408191 -38.76757844091002 0.04405994764743214 -0.025439733225973777 -0.016677273950507637 0.03457192741675184 -0.00945024984599756 -0.03290756138998852 0.007913528152153765 0.0033068126371593506 -36.70046492811044 -0.034295258745745315 0.01266951348679399 -0.008130361417907121 -0.04725628726166283 0.014632786117046485 0.009093091768143855 -0.013430748750445583 -0.04611760772507287 -19.75854488294648 -0.021228524653450268 -0.03243788251011458 -0.03349383014069529 0.014467530248581304 0.019221237953151723 0.04542530037676399 -0.047981644381134475 -0.03664955726372358 24.075974203773818 -0.00920672216748749 -0.011694714789707553 28.855444103635428 0.013022603906961604 0.027617999419695085 28.825500201971593 0.033794492040689746 -0.020949710957543312 6.737165886678171 1.5248404991557982 14.09927427428893 -69.74498385716407 27.869256108897428 -9.918559538247019 -3.2764838286086566 -2.4469631088000634 -102.16624559433136 -10.817724065536726 -7.840061824040475 4.260592935703031 -0.5102689503252464 0.019312150716708942 -8.146916507131596 -0.004781790521573334 -0.013100325177077946 44.5708526304654 -0.04426372907713528 0.01743131359580877 44.5699360992193 12.492665436075715 0.02101465848001912 0.02744255741668708 0.048967087403408764 -0.01020320472861555 -0.04371245515865977 0.03638115348278451 -0.023362168199835928 -0.033509450743306676 11.099570868721045 -0.022627874737493257 0.03268118215774753 0.035390160948909545 0.0012021320043987852 -0.00791037318108293 -0.006184838977062554 -0.030022436825832246 -0.04753238660710904 4.742182881245956 0.012863720895910214 -0.04699470994917916 -0.010416455155083888 0.025418886279514892 -0.015301975268141576 -0.010037175183158486 -0.00825813216645924 0.03102511146496824 -5.63585387327783 -0.013213811631602753 0.012085769386599844 -6.739992124312406 0.02656250193797405 -0.03471225099554528 -6.678713835122924 0.029957577641574615 0.020246148511434355 0.032346451803302145 0.04171080065117432 -0.0008160423614447923 8.035080409277239 3.503534006602577 -19.25832155345208 0.024224253472321763 10.353652857238748 0.05598578607119796 -5.603250360782647 -15.642146985736158 3.231893389780322 -0.04600349304996064 -0.024483238249700105 -0.0029922186448032933 -0.00387161512151643 4.675747514379763 -0.025327672387529854 12.444806637858429 -8.211221150284391 6.8944724993254685 0.030424266180200294 46.353060986791675 -0.00013367595594357016 -4.365300068360209 -14.75673559457818 -3.8139642191480476 0.0361539637192658 0.02184799285672489 0.0013943632874734073 0.03054430486439226 -10.75736259189106 -0.03343710146069238 
-0.045809341676870986 0.003121575292594207 -0.033618792203312 0.033410734869163516 -0.01944880765951113 0.03889521377909074 -2.280450245978784 -0.24582080809803225 -0.8526526065578597 -0.990119351388686 3.6764028161176294 0.3981390569006079 -1.1578423715207735 -1.957804080897255 -0.4873466074638988 -0.2731660656118539 0.22891859437834688 -0.7190800321697733 -0.30203964303326863 13.68481235791814 1.1286908875319484 0.2069427599773831 1.0812978040523673 1.068612456090301 -0.08428183959457371 -13.141386808735069 0.15383127590615103 -4.345375804697344 1.7355003216595748 -15.131899445290765 70.7421396472393 19.623608808687536 10.244631936724167 11.023689882178944 2.648396811089854 104.30297018090997 15.639321562759003 -0.4815194175860335 -4.3375875923854705 4.501189145072326 -0.13147217281777934 -1.5628856698651576 0.005038184501004952 0.03436350468037899 -56.24996149824986 -0.02404173658553846 -0.03140619182301071 -56.21767693013463 -38.726309280179855 0.014402265152603828 0.045400097633379564 -0.026190483202238494 -0.00022302537062304827 0.012136230484295229 0.008486584967499372 -0.0026567069601310038 0.01937160836899356 -36.67641728720574 0.006493821402020549 -0.0017283706150392837 0.003908623369904668 0.013905766380404999 0.021192942279572052 0.015480269997236201 0.0007588290709753482 0.02191042749865843 -19.74895502191226 0.02747981947446004 -0.024275616943427773 0.000689761860887407 0.01037297486476027 -0.013007869078693642 0.03494058815633663 -0.0012337930300351204 -0.04131109970793585 24.09622695287512 -0.009686853257577139 0.045703682829262786 28.815307645007774 -0.024995557229052934 -0.03844299734120164 28.88076406241419 0.011157243433613741 0.022591518052470404 6.5704986812419905 1.5460581078782618 14.082584347263566 -69.77629286003678 27.933193178688526 -9.956473863150933 -5.052614782202747 -1.8682897227513444 -101.37838399530604 -10.992895838128186 -7.594695205972151 4.2173881951122345 -0.47277939857665413 0.06791545123575102 -8.129011046934226 -0.04909296356180147 -0.03788582910507087 44.57248628529308 0.016418857918134133 0.025744493091314186 44.585059983776496 12.483244860770537 0.04707133759681207 -0.04042677464980706 -0.018246314073683528 -0.028317301647646974 -0.02133065276976073 -0.0035396861965294067 -0.00556805044056403 0.02458819815324182 11.086627700115159 0.01120239107036297 -0.03674256826615241 0.010477260675442157 -0.04378037400464944 -0.030426763319394062 -0.003216418039217868 -0.032176838413318976 -0.0013898277015261936 4.768708176740711 0.0016100892663273945 0.02495345206235057 -0.004592377908022411 0.04993405791783075 -0.04077448054405215 0.046921062860533456 0.011559063378180235 -0.008892001419337808 -5.640466211013301 -0.021897030928151557 0.01572905989856818 -6.7310056008886585 0.023465254380341617 0.02414553414328657 -6.671901721798364 -0.04761739881865325 0.023444556504792928 -0.03230757493079211 -0.03021452189809864 0.014172378780337684 8.073410063647279 3.50814232077857 -19.24913493772462 -0.0034725948170458505 10.405952916300876 0.0077683368131883195 -5.613849690810071 -15.644115653518918 3.2125660961273854 -0.03639684729449652 0.018286432310142316 0.01103342105029717 0.025144968559868017 4.732264309462795 -0.0339623343472282 12.442031822654096 -8.236405175765087 6.902509478297314 0.008599059452455971 46.396598906122165 -0.005127594898752862 -4.28908077641977 -14.710741584095258 -3.8560771288389795 -0.022659231432954213 -0.04199242509297703 0.018592769941999807 0.02525967709758513 -10.71844971490032 0.04958163988635125 
-0.02356586938640849 -0.0017340489753426584 -0.04378900100434427 0.04487527511954689 0.0028355160328384626 -0.01391795499759232 -2.3099021133960593 -0.11290727934931812 -0.9040382245106 -0.9492667527424692 3.710914136081318 0.34980415022699096 -1.1768972543341518 -1.9269111538321644 -0.4425578777103045 -0.21451683456248458 0.2794017548020983 -0.7591308641463859 -0.3491137764961342 13.594284045187159 1.0946350303418015 0.19275314858197184 0.9438418840343711 1.0128323350625499 -0.10790356212883358 -13.307782265723228 0.10059536891914506 -4.252368281787656 1.710885445945789 -15.023636812416049 70.79103724185961 19.310151215804236 10.224555410326484 12.11013075768975 2.7707918974845502 103.64791718111466 15.45402789506861 -0.4109643439197548 -4.188256952681828 4.521195036052179 -0.1564893434522256 -1.603825884046152 -0.04537076383892214 0.017347846142183494 -56.21068526715467 -0.005353291670050263 0.007557514798678368 -56.19542199490395 -38.763516874741704 0.03203170559329274 -0.02640970042635745 -0.010291304858578917 -0.01970773676861158 -0.04588718120831989 0.007399038392225036 -0.024499293768301147 0.017815336345622542 -36.692696283218964 0.024323866220598095 -0.0104931940130077 0.03460130524063826 -0.04744809995584234 0.03392931487717441 -0.03298572344406597 0.020802155222523235 -0.003437664862333466 -19.8065453508591 0.03404929605937348 0.03191763582356561 0.026649961094768696 0.023650248795835212 0.0046956688225257845 -0.04978041472619728 -0.023056991212186212 0.025340760901661593 24.05197882929254 -0.03305675116661614 0.0037349650983894396 28.844345744003903 0.021703253356021784 0.02273048610410797 28.831653561252836 -0.032582445416716774 0.013518445317577612 6.529293737477006 1.554525268916445 14.025914664051378 -69.74237902373952 27.724645585891047 -10.31979800572169 -6.5419940056050585 -1.4578817530248542 -100.61577378614656 -10.958655136854834 -7.1281321414059615 4.179972333076186 -0.4361619082187879 0.0500131931774003 -8.08642981009583 -0.018863955336397665 0.03475062825632287 44.54031084101317 -0.03934955020038641 -0.034875755128467946 44.56589652727737 12.473495775948374 0.03261407100924668 -0.04810659110272171 0.003373476147915911 0.03399554992555 -0.03776075588734024 0.03897601407593254 0.03296125097634274 -0.00347489827664911 11.150999815047168 -0.03467405540057324 0.011243174875445974 0.023245267282519053 -0.04818600986353537 0.04458605796360823 -0.027915369172491725 -0.022185274569414163 -0.01895345234991912 4.820721803572206 -0.025418549905783416 0.02019129106356533 -0.02612385931462056 0.0007080976752668463 0.04749986237282784 0.001894583368158338 0.04479685504548377 0.017879980671997298 -5.579108156162497 -0.022966751989018243 -0.030294148199925094 -6.691424015144845 0.03228594745389531 0.007894798234591792 -6.674453830628512 -0.03713419939643504 0.023748307586812845 -0.0058744399327549405 -0.038474581478292434 0.006778149842563016 8.034060861455023 3.4698270913941665 -19.24000724433338 -0.010141386029293214 10.428497399123964 -0.03195068532327926 -5.61622408203831 -15.652516580217283 3.1972330848212476 0.013276210506929615 -0.003170333707908701 0.03395752675402821 -0.016529487417669186 4.683262184143044 0.0007571775085698676 12.432281560705817 -8.245371303873737 6.880457497935584 0.02979095115383985 46.367697964300184 0.0003159318209149274 -4.344035762420193 -14.741355484516806 -3.831765237136725 -0.029476050950386745 0.01758885472161783 -0.02042223356909111 -0.04547626199634976 -10.725181011741414 0.02167216499507635 
